<svg version="1.1" id="Layer_1" xmlns="http://www.w3.org/2000/svg" xmlns:xlink="http://www.w3.org/1999/xlink" x="0px" y="0px"
	 width="100%" viewBox="0 0 340 340" enable-background="new 0 0 340 340" xml:space="preserve">
<path fill="#000000" opacity="1.000000" stroke="none" 
	d="
M187.000000,341.000000 
	C124.666664,341.000000 62.833332,341.000000 1.000000,341.000000 
	C1.000000,227.666672 1.000000,114.333336 1.000000,1.000000 
	C114.333336,1.000000 227.666672,1.000000 341.000000,1.000000 
	C341.000000,114.333336 341.000000,227.666672 341.000000,341.000000 
	C289.833344,341.000000 238.666672,341.000000 187.000000,341.000000 
M210.984711,152.968109 
	C210.984711,152.968109 210.817307,153.155777 210.495880,153.152191 
	C210.262466,153.268600 210.189804,153.449448 209.877213,154.037369 
	C209.752106,154.160767 209.626984,154.284180 208.940323,154.222183 
	C207.644470,155.799850 206.348633,157.377518 204.991089,158.996460 
	C204.991089,158.996460 204.941788,159.051956 204.564880,159.223083 
	C204.324753,159.386307 204.170975,159.609131 203.982895,159.993835 
	C203.982895,159.993835 203.880798,160.114670 203.525299,160.221252 
	C203.296097,160.363327 203.173782,160.568985 202.976837,161.035324 
	C202.976837,161.035324 202.819626,161.252304 202.335495,161.503479 
	C202.075928,161.979340 201.816360,162.455215 201.071930,163.316742 
	C200.039444,164.604218 199.006973,165.891693 197.420364,167.504288 
	C196.130905,168.985260 194.841446,170.466232 193.079697,172.361374 
	C190.137970,175.298004 187.263580,178.305984 184.242325,181.158386 
	C173.634628,191.173218 165.571976,191.230515 155.418045,180.766388 
	C146.398773,171.471603 137.883194,161.689987 129.061615,152.201035 
	C112.546829,134.436890 95.971474,116.729042 79.053383,98.406258 
	C77.048828,96.617050 75.044273,94.827843 73.013283,92.985352 
	C73.013283,92.985352 72.975067,92.939766 72.847610,92.413422 
	C72.571777,91.952034 72.295944,91.490654 72.005791,90.999146 
	C72.005791,90.999146 71.979538,90.978584 71.621674,90.461678 
	C70.748581,89.984810 69.875488,89.507935 68.828773,88.343353 
	C68.051727,86.888718 67.541756,85.184189 66.453300,84.020935 
	C60.425499,77.578896 54.391804,71.131020 48.094124,64.956436 
	C43.002495,59.964333 34.002953,58.416351 28.574100,61.107864 
	C22.934967,63.903633 19.018209,71.619713 20.173626,78.995033 
	C20.671457,82.172813 22.073626,85.421196 23.817177,88.158356 
	C39.473248,112.736435 55.313103,137.197357 71.066185,161.713760 
	C84.387444,182.445526 97.646545,203.217224 110.967911,223.948914 
	C122.126923,241.315384 133.336136,258.649597 144.819443,276.654633 
	C145.211548,277.257263 145.603653,277.859863 146.180099,278.645264 
	C146.304398,278.765747 146.431427,278.883270 146.829651,279.598633 
	C147.539429,280.383148 148.249191,281.167664 148.986603,282.014069 
	C148.986603,282.014069 149.028290,282.067535 149.060181,282.585419 
	C149.338898,282.997925 149.617630,283.410431 149.982864,283.978302 
	C149.982864,283.978302 150.090561,284.119812 150.323502,284.581146 
	C150.552902,284.840454 150.782318,285.099762 151.400757,285.852295 
	C152.476196,287.122192 153.464478,288.479858 154.640793,289.648193 
	C164.491104,299.431549 173.512985,299.999603 184.010117,290.904358 
	C187.726807,287.684052 190.906952,283.641357 193.626587,279.509766 
	C203.606384,264.348785 213.276993,248.984451 223.087128,233.711533 
	C245.228851,199.240234 267.386169,164.778931 289.533447,130.311203 
	C298.895264,115.741516 308.359131,101.235725 317.561462,86.565903 
	C322.783569,78.241112 321.076019,67.987274 314.056610,62.811146 
	C307.025452,57.626354 297.044464,58.963539 290.557587,65.996223 
	C271.033905,87.162666 251.521896,108.339874 231.493820,129.995926 
	C230.836807,130.666168 230.179794,131.336411 229.206055,132.295593 
	C228.800278,132.698074 228.394501,133.100555 227.436569,133.947144 
	C226.315598,135.595200 225.194641,137.243240 223.931229,139.002243 
	C223.931229,139.002243 223.806351,139.132645 223.335571,139.240616 
	C223.044815,139.399216 222.814194,139.620499 222.323853,140.292023 
	C221.947952,140.846207 221.572052,141.400375 220.664749,142.296051 
	C220.320038,142.540283 219.975342,142.784500 219.419205,143.201218 
	C219.279785,143.318130 219.143402,143.438477 218.556671,143.998871 
	C218.053909,144.648254 217.551147,145.297638 216.999741,146.001068 
	C216.999741,146.001068 216.965912,146.065430 216.446365,146.428421 
	C215.537735,147.616302 214.629105,148.804199 213.519531,149.972336 
	C213.519531,149.972336 213.318558,149.952835 212.768845,150.224396 
	C212.544586,150.756485 212.320312,151.288574 211.948288,151.978226 
	C211.948288,151.978226 211.823044,152.154205 211.460587,152.184387 
	C211.212860,152.319778 211.117279,152.525772 210.984711,152.968109 
z"/>
<path fill="#030303" opacity="1.000000" stroke="none" 
	d="
M232.005310,129.512878 
	C251.521896,108.339874 271.033905,87.162666 290.557587,65.996223 
	C297.044464,58.963539 307.025452,57.626354 314.056610,62.811146 
	C321.076019,67.987274 322.783569,78.241112 317.561462,86.565903 
	C308.359131,101.235725 298.895264,115.741516 289.533447,130.311203 
	C267.386169,164.778931 245.228851,199.240234 223.087128,233.711533 
	C213.276993,248.984451 203.606384,264.348785 193.626587,279.509766 
	C190.906952,283.641357 187.726807,287.684052 184.010117,290.904358 
	C173.512985,299.999603 164.491104,299.431549 154.640793,289.648193 
	C153.464478,288.479858 152.476196,287.122192 151.087708,285.370544 
	C150.546616,284.632477 150.318588,284.376160 150.090561,284.119812 
	C150.090561,284.119812 149.982864,283.978302 149.934525,283.642639 
	C149.600220,282.893860 149.314255,282.480682 149.028290,282.067535 
	C149.028290,282.067535 148.986603,282.014069 148.893677,281.662964 
	C148.054230,280.540527 147.307709,279.769165 146.561188,278.997803 
	C146.431427,278.883270 146.304398,278.765747 145.993988,278.196014 
	C145.379639,277.163879 144.951385,276.580963 144.523132,275.998077 
	C133.336136,258.649597 122.126923,241.315384 110.967911,223.948914 
	C97.646545,203.217224 84.387444,182.445526 71.066185,161.713760 
	C55.313103,137.197357 39.473248,112.736435 23.817177,88.158356 
	C22.073626,85.421196 20.671457,82.172813 20.173626,78.995033 
	C19.018209,71.619713 22.934967,63.903633 28.574100,61.107864 
	C34.002953,58.416351 43.002495,59.964333 48.094124,64.956436 
	C54.391804,71.131020 60.425499,77.578896 66.453300,84.020935 
	C67.541756,85.184189 68.051727,86.888718 68.971680,88.905205 
	C70.069565,89.970894 71.024551,90.474739 71.979538,90.978584 
	C71.979538,90.978584 72.005791,90.999146 72.090805,91.272003 
	C72.442238,92.009834 72.708656,92.474800 72.975067,92.939766 
	C72.975067,92.939766 73.013283,92.985352 73.065369,93.364044 
	C73.053284,96.853493 78.258926,99.016220 74.785339,102.804581 
	C74.739944,102.854095 75.546761,104.067711 75.959610,104.070061 
	C76.680573,104.074173 77.784607,103.750435 78.052101,103.221947 
	C78.712517,101.917160 78.989937,100.418503 79.421310,98.997780 
	C95.971474,116.729042 112.546829,134.436890 129.061615,152.201035 
	C137.883194,161.689987 146.398773,171.471603 155.418045,180.766388 
	C165.571976,191.230515 173.634628,191.173218 184.242325,181.158386 
	C187.263580,178.305984 190.137970,175.298004 193.658371,172.084534 
	C195.482864,170.264847 196.728668,168.722000 197.974487,167.179153 
	C199.006973,165.891693 200.039444,164.604218 201.571503,162.999603 
	C202.320587,162.205750 202.570114,161.729019 202.819626,161.252304 
	C202.819626,161.252304 202.976837,161.035324 203.254074,160.897736 
	C203.770386,160.611374 203.886887,160.396225 203.880798,160.114670 
	C203.880798,160.114670 203.982895,159.993835 204.238098,159.867523 
	C204.728149,159.566986 204.877640,159.337250 204.941788,159.051956 
	C204.941788,159.051956 204.991089,158.996460 205.351624,158.927765 
	C206.975388,157.375229 208.238632,155.891418 209.501877,154.407593 
	C209.626984,154.284180 209.752106,154.160767 210.236115,153.873749 
	C210.811691,153.582672 210.885788,153.397888 210.817307,153.155777 
	C210.817307,153.155777 210.984711,152.968109 211.258453,152.868713 
	C211.774643,152.633194 211.871597,152.428146 211.823044,152.154205 
	C211.823044,152.154205 211.948288,151.978226 212.277191,151.757492 
	C212.843567,151.008774 213.081055,150.480804 213.318558,149.952835 
	C213.318558,149.952835 213.519531,149.972336 213.868988,150.098236 
	C220.206421,152.188812 216.187836,147.542664 216.965912,146.065430 
	C216.965912,146.065430 216.999741,146.001068 217.302078,145.825104 
	C218.072983,144.953522 218.541534,144.257904 219.010086,143.562286 
	C219.143402,143.438477 219.279785,143.318130 219.795868,142.946777 
	C220.513748,142.446411 220.854950,142.200485 221.196152,141.954559 
	C221.572052,141.400375 221.947952,140.846207 222.725952,140.047501 
	C223.473236,139.699982 223.699341,139.476547 223.806351,139.132645 
	C223.806351,139.132645 223.931229,139.002243 224.335754,138.865356 
	C225.823090,136.986679 226.905914,135.244858 227.988739,133.503036 
	C228.394501,133.100555 228.800278,132.698074 229.693848,131.988861 
	C230.789520,130.959045 231.397415,130.235962 232.005310,129.512878 
M201.966049,167.982941 
	C201.966049,167.982941 202.011322,167.987259 202.198196,168.090759 
	C202.329727,168.151627 202.461258,168.212494 202.592789,168.273376 
	C202.391022,168.185760 202.189255,168.098145 201.966049,167.982941 
M207.609161,167.513657 
	C207.464859,167.396408 207.320557,167.279160 207.176254,167.161911 
	C207.285782,167.309875 207.395309,167.457840 207.609161,167.513657 
M150.517456,277.525909 
	C150.517456,277.525909 150.508820,277.487976 150.517456,277.525909 
M213.520126,156.514771 
	C213.520126,156.514771 213.519882,156.486679 213.520126,156.514771 
M71.481300,95.516602 
	C71.481300,95.516602 71.514534,95.511536 71.481300,95.516602 
z"/>
<path fill="#0F0F0F" opacity="1.000000" stroke="none" 
	d="
M79.237350,98.702019 
	C78.989937,100.418503 78.712517,101.917160 78.052101,103.221947 
	C77.784607,103.750435 76.680573,104.074173 75.959610,104.070061 
	C75.546761,104.067711 74.739944,102.854095 74.785339,102.804581 
	C78.258926,99.016220 73.053284,96.853493 73.078583,93.390686 
	C75.044273,94.827843 77.048828,96.617050 79.237350,98.702019 
z"/>
<path fill="#151515" opacity="1.000000" stroke="none" 
	d="
M197.697418,167.341721 
	C196.728668,168.722000 195.482864,170.264847 193.894531,171.877441 
	C194.841446,170.466232 196.130905,168.985260 197.697418,167.341721 
z"/>
<path fill="#151515" opacity="1.000000" stroke="none" 
	d="
M209.221100,154.314880 
	C208.238632,155.891418 206.975388,157.375229 205.382477,158.907135 
	C206.348633,157.377518 207.644470,155.799850 209.221100,154.314880 
z"/>
<path fill="#131313" opacity="1.000000" stroke="none" 
	d="
M216.706146,146.246918 
	C216.187836,147.542664 220.206421,152.188812 213.969467,150.108093 
	C214.629105,148.804199 215.537735,147.616302 216.706146,146.246918 
z"/>
<path fill="#131313" opacity="1.000000" stroke="none" 
	d="
M227.712646,133.725098 
	C226.905914,135.244858 225.823090,136.986679 224.406982,138.809875 
	C225.194641,137.243240 226.315598,135.595200 227.712646,133.725098 
z"/>
<path fill="#0F0F0F" opacity="1.000000" stroke="none" 
	d="
M71.800606,90.720131 
	C71.024551,90.474739 70.069565,89.970894 69.058487,89.249062 
	C69.875488,89.507935 70.748581,89.984810 71.800606,90.720131 
z"/>
<path fill="#111111" opacity="1.000000" stroke="none" 
	d="
M146.695419,279.298218 
	C147.307709,279.769165 148.054230,280.540527 148.879852,281.632019 
	C148.249191,281.167664 147.539429,280.383148 146.695419,279.298218 
z"/>
<path fill="#131313" opacity="1.000000" stroke="none" 
	d="
M218.783386,143.780579 
	C218.541534,144.257904 218.072983,144.953522 217.326385,145.798065 
	C217.551147,145.297638 218.053909,144.648254 218.783386,143.780579 
z"/>
<path fill="#131313" opacity="1.000000" stroke="none" 
	d="
M231.749573,129.754395 
	C231.397415,130.235962 230.789520,130.959045 229.852203,131.844391 
	C230.179794,131.336411 230.836807,130.666168 231.749573,129.754395 
z"/>
<path fill="#111111" opacity="1.000000" stroke="none" 
	d="
M149.044235,282.326477 
	C149.314255,282.480682 149.600220,282.893860 149.891266,283.564972 
	C149.617630,283.410431 149.338898,282.997925 149.044235,282.326477 
z"/>
<path fill="#151515" opacity="1.000000" stroke="none" 
	d="
M213.043701,150.088623 
	C213.081055,150.480804 212.843567,151.008774 212.351059,151.678711 
	C212.320312,151.288574 212.544586,150.756485 213.043701,150.088623 
z"/>
<path fill="#111111" opacity="1.000000" stroke="none" 
	d="
M144.671295,276.326355 
	C144.951385,276.580963 145.379639,277.163879 145.901825,278.104614 
	C145.603653,277.859863 145.211548,277.257263 144.671295,276.326355 
z"/>
<path fill="#0F0F0F" opacity="1.000000" stroke="none" 
	d="
M72.911339,92.676590 
	C72.708656,92.474800 72.442238,92.009834 72.097969,91.287064 
	C72.295944,91.490654 72.571777,91.952034 72.911339,92.676590 
z"/>
<path fill="#151515" opacity="1.000000" stroke="none" 
	d="
M202.577560,161.377899 
	C202.570114,161.729019 202.320587,162.205750 201.813934,162.806763 
	C201.816360,162.455215 202.075928,161.979340 202.577560,161.377899 
z"/>
<path fill="#111111" opacity="1.000000" stroke="none" 
	d="
M150.207031,284.350464 
	C150.318588,284.376160 150.546616,284.632477 150.893188,285.123962 
	C150.782318,285.099762 150.552902,284.840454 150.207031,284.350464 
z"/>
<path fill="#151515" opacity="1.000000" stroke="none" 
	d="
M203.703049,160.167969 
	C203.886887,160.396225 203.770386,160.611374 203.344818,160.799179 
	C203.173782,160.568985 203.296097,160.363327 203.703049,160.167969 
z"/>
<path fill="#151515" opacity="1.000000" stroke="none" 
	d="
M204.753326,159.137512 
	C204.877640,159.337250 204.728149,159.566986 204.298447,159.816376 
	C204.170975,159.609131 204.324753,159.386307 204.753326,159.137512 
z"/>
<path fill="#151515" opacity="1.000000" stroke="none" 
	d="
M210.656586,153.153992 
	C210.885788,153.397888 210.811691,153.582672 210.436462,153.702454 
	C210.189804,153.449448 210.262466,153.268600 210.656586,153.153992 
z"/>
<path fill="#151515" opacity="1.000000" stroke="none" 
	d="
M211.641815,152.169296 
	C211.871597,152.428146 211.774643,152.633194 211.353027,152.785858 
	C211.117279,152.525772 211.212860,152.319778 211.641815,152.169296 
z"/>
<path fill="#131313" opacity="1.000000" stroke="none" 
	d="
M220.930450,142.125305 
	C220.854950,142.200485 220.513748,142.446411 219.901581,142.860535 
	C219.975342,142.784500 220.320038,142.540283 220.930450,142.125305 
z"/>
<path fill="#131313" opacity="1.000000" stroke="none" 
	d="
M223.570953,139.186630 
	C223.699341,139.476547 223.473236,139.699982 222.885880,139.853729 
	C222.814194,139.620499 223.044815,139.399216 223.570953,139.186630 
z"/>
<path fill="#151515" opacity="1.000000" stroke="none" 
	d="
M207.557007,167.559723 
	C207.395309,167.457840 207.285782,167.309875 207.176254,167.161911 
	C207.320557,167.279160 207.464859,167.396408 207.557007,167.559723 
z"/>
<path fill="#151515" opacity="1.000000" stroke="none" 
	d="
M201.987488,168.010529 
	C202.189255,168.098145 202.391022,168.185760 202.592789,168.273376 
	C202.461258,168.212494 202.329727,168.151627 202.099518,168.045593 
	C202.000824,168.000443 201.987488,168.010529 201.987488,168.010529 
z"/>
<path fill="#111111" opacity="1.000000" stroke="none" 
	d="
M150.513138,277.506958 
	C150.508820,277.487976 150.517456,277.525909 150.513138,277.506958 
z"/>
<path fill="#151515" opacity="1.000000" stroke="none" 
	d="
M202.006073,167.993851 
	C202.011322,167.987259 201.966049,167.982941 201.976776,167.996735 
	C201.987488,168.010529 202.000824,168.000443 202.006073,167.993851 
z"/>
<path fill="#151515" opacity="1.000000" stroke="none" 
	d="
M213.520004,156.500732 
	C213.519882,156.486679 213.520126,156.514771 213.520004,156.500732 
z"/>
<path fill="#0F0F0F" opacity="1.000000" stroke="none" 
	d="
M71.497917,95.514069 
	C71.514534,95.511536 71.481300,95.516602 71.497917,95.514069 
z"/>
</svg>