<svg version="1.1" id="Layer_1" xmlns="http://www.w3.org/2000/svg" xmlns:xlink="http://www.w3.org/1999/xlink" x="0px" y="0px"
	 width="100%" viewBox="0 0 340 340" enable-background="new 0 0 340 340" xml:space="preserve">
<path fill="#FEFEFE" opacity="1.000000" stroke="none" 
	d="
M228.000000,341.000000 
	C152.000015,341.000000 76.500031,341.000000 1.000030,341.000000 
	C1.000020,227.666702 1.000020,114.333405 1.000010,1.000076 
	C114.333282,1.000051 227.666565,1.000051 340.999878,1.000025 
	C340.999939,114.333260 340.999939,227.666519 340.999969,340.999878 
	C303.500000,341.000000 266.000000,341.000000 228.000000,341.000000 
M209.781906,154.297455 
	C209.469177,154.738754 209.156448,155.180069 208.255539,155.873657 
	C207.767242,156.553329 207.278931,157.233002 206.181580,158.163940 
	C203.645340,161.051163 201.109100,163.938400 198.020493,167.070831 
	C197.289627,168.019318 196.558762,168.967804 195.223450,170.186523 
	C190.462402,175.061417 186.047852,180.348587 180.856552,184.711533 
	C173.636719,190.779312 165.896133,190.431854 158.598740,184.394089 
	C155.792328,182.072113 153.223404,179.430267 150.743591,176.751465 
	C126.882729,150.975876 103.064018,125.161247 78.959129,98.788101 
	C76.523308,96.229950 74.087486,93.671799 71.537460,91.019814 
	C71.537460,91.019814 71.438637,90.909897 71.234612,90.341415 
	C70.641960,89.826096 70.049301,89.310783 69.025482,88.217072 
	C67.107780,86.207001 65.190071,84.196922 63.095936,81.661469 
	C62.418514,81.064377 61.741093,80.467285 60.865124,79.234032 
	C56.430653,74.489075 52.202366,69.527351 47.504765,65.059029 
	C42.632565,60.424633 36.749699,58.176491 30.114304,61.040752 
	C23.679949,63.818237 20.257639,69.203430 20.331533,76.016518 
	C20.370646,79.622681 21.630838,83.672928 23.579250,86.733673 
	C64.386436,150.837326 105.312057,214.865982 146.433929,278.768127 
	C149.694321,283.834717 154.135040,288.372711 158.773117,292.268341 
	C165.984573,298.325409 173.968399,298.447113 181.072479,292.296143 
	C186.150986,287.898987 190.744354,282.599640 194.399277,276.955017 
	C220.358505,236.863907 245.987427,196.559082 271.789520,156.365952 
	C285.357422,135.230591 299.062347,114.183182 312.911102,93.826797 
	C316.035309,97.167465 317.876526,94.452583 319.998016,92.679344 
	C318.853638,90.496918 317.874176,88.629021 317.270966,86.125076 
	C317.811371,84.814102 318.379395,83.513725 318.887756,82.190430 
	C322.061340,73.929161 317.668945,63.915897 309.309601,60.849960 
	C301.631714,58.033970 295.711761,61.460514 290.650726,66.866425 
	C279.285339,79.006226 267.973419,91.196770 256.715698,103.436485 
	C242.770325,118.598228 228.901764,133.830612 215.068512,149.044754 
	C215.068512,149.044754 214.993805,149.015274 214.305969,149.320206 
	C213.874023,149.922760 213.442078,150.525314 212.451843,151.341003 
	C211.732864,152.256439 211.013885,153.171890 209.781906,154.297455 
z"/>
<path fill="#020202" opacity="1.000000" stroke="none" 
	d="
M79.233246,99.357788 
	C103.064018,125.161247 126.882729,150.975876 150.743591,176.751465 
	C153.223404,179.430267 155.792328,182.072113 158.598740,184.394089 
	C165.896133,190.431854 173.636719,190.779312 180.856552,184.711533 
	C186.047852,180.348587 190.462402,175.061417 195.819473,170.169876 
	C197.364487,169.809448 198.423721,169.611557 199.193192,169.030151 
	C199.415024,168.862579 198.802734,167.591034 198.572876,166.825623 
	C201.109100,163.938400 203.645340,161.051163 206.853302,158.012283 
	C207.964584,157.114212 208.404144,156.367798 208.843719,155.621384 
	C209.156448,155.180069 209.469177,154.738754 210.382385,154.172729 
	C211.658600,153.074615 212.334351,152.101227 213.010117,151.127869 
	C213.442078,150.525314 213.874023,149.922760 214.669342,149.529694 
	C215.934433,150.259766 216.836182,150.780380 217.737915,151.300980 
	C217.871613,150.854507 218.005295,150.408051 218.138977,149.961594 
	C217.092667,149.651901 216.046356,149.342194 215.000046,149.032501 
	C228.901764,133.830612 242.770325,118.598228 256.715698,103.436485 
	C267.973419,91.196770 279.285339,79.006226 290.650726,66.866425 
	C295.711761,61.460514 301.631714,58.033970 309.309601,60.849960 
	C317.668945,63.915897 322.061340,73.929161 318.887756,82.190430 
	C318.379395,83.513725 317.811371,84.814102 316.789246,86.602661 
	C315.106842,89.085518 313.906128,91.090790 312.705414,93.096069 
	C299.062347,114.183182 285.357422,135.230591 271.789520,156.365952 
	C245.987427,196.559082 220.358505,236.863907 194.399277,276.955017 
	C190.744354,282.599640 186.150986,287.898987 181.072479,292.296143 
	C173.968399,298.447113 165.984573,298.325409 158.773117,292.268341 
	C154.135040,288.372711 149.694321,283.834717 146.433929,278.768127 
	C105.312057,214.865982 64.386436,150.837326 23.579250,86.733673 
	C21.630838,83.672928 20.370646,79.622681 20.331533,76.016518 
	C20.257639,69.203430 23.679949,63.818237 30.114304,61.040752 
	C36.749699,58.176491 42.632565,60.424633 47.504765,65.059029 
	C52.202366,69.527351 56.430653,74.489075 60.805904,79.871277 
	C60.016418,82.611526 59.255081,84.705460 58.633007,86.839989 
	C58.595642,86.968201 60.143700,87.707130 60.159538,87.680962 
	C61.249081,85.881027 62.257286,84.031860 63.272369,82.186852 
	C65.190071,84.196922 67.107780,86.207001 68.934052,88.685852 
	C69.707962,89.739723 70.573303,90.324814 71.438637,90.909897 
	C71.438637,90.909897 71.537460,91.019814 71.425781,91.494514 
	C72.306717,95.958817 73.218300,99.972466 74.387230,103.909721 
	C74.546028,104.444588 76.037247,104.933006 76.830879,104.828781 
	C77.575020,104.731064 78.576660,103.942253 78.815170,103.237610 
	C79.222260,102.034958 79.120987,100.660233 79.233246,99.357788 
M207.192429,165.295105 
	C204.534424,164.252380 203.264130,166.363373 201.700775,168.536301 
	C203.948624,168.424576 206.196457,168.312851 209.034637,168.171783 
	C208.183685,166.890594 207.830536,166.358902 207.192429,165.295105 
M221.518539,148.412125 
	C221.518539,148.412125 221.585449,148.524078 221.518539,148.412125 
M213.589294,156.515625 
	C213.589294,156.515625 213.478210,156.581940 213.589294,156.515625 
M213.588593,159.516678 
	C213.588593,159.516678 213.479248,159.581177 213.588593,159.516678 
M215.409485,160.482330 
	C215.409485,160.482330 215.520538,160.416275 215.409485,160.482330 
z"/>
<path fill="#0D0D0D" opacity="1.000000" stroke="none" 
	d="
M79.096191,99.072945 
	C79.120987,100.660233 79.222260,102.034958 78.815170,103.237610 
	C78.576660,103.942253 77.575020,104.731064 76.830879,104.828781 
	C76.037247,104.933006 74.546028,104.444588 74.387230,103.909721 
	C73.218300,99.972466 72.306717,95.958817 71.482880,91.541428 
	C74.087486,93.671799 76.523308,96.229950 79.096191,99.072945 
z"/>
<path fill="#EFEFEF" opacity="1.000000" stroke="none" 
	d="
M312.808258,93.461433 
	C313.906128,91.090790 315.106842,89.085518 316.601135,86.920685 
	C317.874176,88.629021 318.853638,90.496918 319.998016,92.679344 
	C317.876526,94.452583 316.035309,97.167465 312.808258,93.461433 
z"/>
<path fill="#0E0E0E" opacity="1.000000" stroke="none" 
	d="
M63.184151,81.924164 
	C62.257286,84.031860 61.249081,85.881027 60.159538,87.680962 
	C60.143700,87.707130 58.595642,86.968201 58.633007,86.839989 
	C59.255081,84.705460 60.016418,82.611526 60.905182,80.189362 
	C61.741093,80.467285 62.418514,81.064377 63.184151,81.924164 
z"/>
<path fill="#101010" opacity="1.000000" stroke="none" 
	d="
M198.296677,166.948227 
	C198.802734,167.591034 199.415024,168.862579 199.193192,169.030151 
	C198.423721,169.611557 197.364487,169.809448 196.121704,170.034760 
	C196.558762,168.967804 197.289627,168.019318 198.296677,166.948227 
z"/>
<path fill="#101010" opacity="1.000000" stroke="none" 
	d="
M215.034271,149.038635 
	C216.046356,149.342194 217.092667,149.651901 218.138977,149.961594 
	C218.005295,150.408051 217.871613,150.854507 217.737915,151.300980 
	C216.836182,150.780380 215.934433,150.259766 215.013245,149.377228 
	C214.993805,149.015274 215.068512,149.044754 215.034271,149.038635 
z"/>
<path fill="#0D0D0D" opacity="1.000000" stroke="none" 
	d="
M71.336624,90.625656 
	C70.573303,90.324814 69.707962,89.739723 69.149643,88.975052 
	C70.049301,89.310783 70.641960,89.826096 71.336624,90.625656 
z"/>
<path fill="#101010" opacity="1.000000" stroke="none" 
	d="
M212.730972,151.234436 
	C212.334351,152.101227 211.658600,153.074615 210.638885,154.067673 
	C211.013885,153.171890 211.732864,152.256439 212.730972,151.234436 
z"/>
<path fill="#101010" opacity="1.000000" stroke="none" 
	d="
M208.549622,155.747528 
	C208.404144,156.367798 207.964584,157.114212 207.157822,157.886658 
	C207.278931,157.233002 207.767242,156.553329 208.549622,155.747528 
z"/>
<path fill="#101010" opacity="1.000000" stroke="none" 
	d="
M207.334900,165.561157 
	C207.830536,166.358902 208.183685,166.890594 209.034637,168.171783 
	C206.196457,168.312851 203.948624,168.424576 201.700775,168.536301 
	C203.264130,166.363373 204.534424,164.252380 207.334900,165.561157 
z"/>
<path fill="#101010" opacity="1.000000" stroke="none" 
	d="
M221.552002,148.468109 
	C221.585449,148.524078 221.518539,148.412125 221.552002,148.468109 
z"/>
<path fill="#101010" opacity="1.000000" stroke="none" 
	d="
M213.533752,156.548782 
	C213.478210,156.581940 213.589294,156.515625 213.533752,156.548782 
z"/>
<path fill="#101010" opacity="1.000000" stroke="none" 
	d="
M213.533920,159.548920 
	C213.479248,159.581177 213.588593,159.516678 213.533920,159.548920 
z"/>
<path fill="#101010" opacity="1.000000" stroke="none" 
	d="
M215.465012,160.449310 
	C215.520538,160.416275 215.409485,160.482330 215.465012,160.449310 
z"/>
</svg>